<svg width="64" height="62" viewBox="0 0 64 62" fill="none" xmlns="http://www.w3.org/2000/svg">
<g clip-path="url(#clip0_3256_33532)">
<path d="M11.3098 61.62L11.3598 44.37H7.61979C3.41979 44.37 0.00978756 40.96 0.00978756 36.76V7.61C-0.000212437 3.41 3.40979 0 7.60979 0H56.3898C60.5898 0 63.9998 3.41 63.9998 7.61V36.76C63.9998 40.96 60.5898 44.37 56.3898 44.37H28.6498L11.2998 61.62H11.3098ZM7.60979 2.87C4.98979 2.87 2.86979 5 2.86979 7.61V36.76C2.86979 39.38 4.99979 41.5 7.60979 41.5H14.2298L14.1898 54.71L27.4698 41.5H56.3898C59.0098 41.5 61.1298 39.37 61.1298 36.76V7.61C61.1298 4.99 58.9998 2.87 56.3898 2.87H7.60979Z" fill="#007B53"/>
<path d="M48.7202 16.43C50.0302 17.74 58.4802 20.04 58.4802 20.04C58.4802 20.04 50.0102 22.36 48.7202 23.65C47.4302 24.94 45.1102 33.41 45.1102 33.41C45.1102 33.41 42.7502 24.91 41.5002 23.65C40.2502 22.39 31.7402 20.04 31.7402 20.04C31.7402 20.04 40.0302 17.9 41.5002 16.43C42.9802 14.95 45.1102 6.67004 45.1102 6.67004C45.1102 6.67004 47.4102 15.12 48.7202 16.43Z" fill="#007B53"/>
</g>
<defs>
<clipPath id="clip0_3256_33532">
<rect width="64" height="61.62" fill="white"/>
</clipPath>
</defs>
</svg>
